<svg xmlns="http://www.w3.org/2000/svg" xmlns:xlink="http://www.w3.org/1999/xlink" viewBox="0 0 400 400"><defs><style>.cls-1{isolation:isolate;}.cls-2{fill:none;}.cls-3{fill:url(#linear-gradient);}.cls-4{fill:url(#linear-gradient-2);}.cls-5{fill:url(#radial-gradient);}.cls-11,.cls-6{mix-blend-mode:multiply;}.cls-6{fill:url(#linear-gradient-3);}.cls-7{fill:url(#radial-gradient-2);}.cls-8{fill:url(#linear-gradient-4);}.cls-9{fill:url(#linear-gradient-5);}.cls-10{fill:url(#linear-gradient-6);}.cls-11{opacity:0.77;fill:url(#radial-gradient-3);}.cls-12{fill:url(#linear-gradient-7);}.cls-13{fill:url(#linear-gradient-8);}.cls-14{fill:url(#linear-gradient-9);}.cls-15{fill:url(#linear-gradient-10);}.cls-16{fill:url(#linear-gradient-11);}.cls-17{fill:url(#linear-gradient-12);}.cls-18{fill:url(#linear-gradient-13);}.cls-19{fill:url(#linear-gradient-14);}.cls-20{fill:url(#linear-gradient-15);}.cls-21{fill:url(#linear-gradient-16);}.cls-22{fill:url(#linear-gradient-17);}.cls-23{fill:url(#linear-gradient-18);}.cls-24{fill:url(#linear-gradient-19);}.cls-25{fill:url(#linear-gradient-20);}.cls-26{fill:url(#linear-gradient-21);}.cls-27{fill:url(#linear-gradient-22);}.cls-28{fill:url(#linear-gradient-23);}.cls-29{fill:url(#linear-gradient-24);}.cls-30{fill:url(#linear-gradient-25);}.cls-31{fill:url(#linear-gradient-26);}.cls-32{fill:url(#linear-gradient-27);}.cls-33{fill:url(#linear-gradient-28);}.cls-34{fill:url(#linear-gradient-29);}.cls-35{fill:url(#linear-gradient-30);}.cls-36{fill:url(#linear-gradient-31);}.cls-37{fill:url(#linear-gradient-32);}.cls-38{fill:url(#linear-gradient-33);}.cls-39{fill:url(#linear-gradient-34);}.cls-40{fill:url(#linear-gradient-35);}.cls-41{fill:url(#linear-gradient-36);}.cls-42{fill:url(#linear-gradient-37);}.cls-43{fill:url(#linear-gradient-38);}.cls-44{fill:url(#linear-gradient-39);}.cls-45{fill:url(#linear-gradient-40);}.cls-46{fill:url(#linear-gradient-41);}.cls-47{fill:url(#linear-gradient-42);}.cls-48{fill:url(#linear-gradient-43);}.cls-49{fill:url(#linear-gradient-44);}.cls-50{fill:url(#linear-gradient-45);}.cls-51{fill:url(#linear-gradient-46);}.cls-52{fill:url(#linear-gradient-47);}.cls-53{fill:url(#linear-gradient-48);}.cls-54{fill:url(#linear-gradient-49);}.cls-55{fill:url(#linear-gradient-50);}.cls-56{fill:url(#linear-gradient-51);}.cls-57{fill:url(#linear-gradient-52);}.cls-58{fill:url(#linear-gradient-53);}.cls-59{fill:url(#linear-gradient-54);}.cls-60{fill:url(#linear-gradient-55);}.cls-61{fill:url(#linear-gradient-56);}.cls-62{fill:url(#linear-gradient-57);}.cls-63{fill:url(#linear-gradient-58);}.cls-64{fill:url(#linear-gradient-59);}.cls-65{fill:url(#linear-gradient-60);}.cls-66{fill:url(#linear-gradient-61);}.cls-67{fill:url(#linear-gradient-62);}.cls-68{fill:url(#linear-gradient-63);}.cls-69{fill:url(#linear-gradient-64);}.cls-70{fill:url(#linear-gradient-65);}.cls-71{fill:url(#linear-gradient-66);}.cls-72{fill:url(#linear-gradient-67);}.cls-73{fill:url(#linear-gradient-68);}.cls-74{fill:url(#linear-gradient-69);}.cls-75{fill:url(#linear-gradient-70);}.cls-76{fill:url(#linear-gradient-71);}.cls-77{fill:url(#linear-gradient-72);}.cls-78{fill:url(#linear-gradient-73);}.cls-79{fill:url(#linear-gradient-74);}.cls-80{fill:url(#linear-gradient-75);}.cls-81{fill:url(#linear-gradient-76);}.cls-82{fill:url(#linear-gradient-77);}</style><linearGradient id="linear-gradient" x1="339.89" y1="1.98" x2="107.23" y2="331.31" gradientUnits="userSpaceOnUse"><stop offset="0" stop-color="#482517"/><stop offset="0.2" stop-color="#a76936"/><stop offset="0.52" stop-color="#f2b657"/><stop offset="0.77" stop-color="#a76936"/><stop offset="1" stop-color="#482517"/></linearGradient><linearGradient id="linear-gradient-2" x1="4.82" y1="200" x2="395.18" y2="200" gradientTransform="translate(372.92 -23.82) rotate(82.69)" xlink:href="#linear-gradient"/><radialGradient id="radial-gradient" cx="1187.43" cy="2402.89" r="521.15" gradientTransform="translate(-220.59 -651.11) scale(0.35)" gradientUnits="userSpaceOnUse"><stop offset="0" stop-color="#b9873d"/><stop offset="0.22" stop-color="#d0aa4d"/><stop offset="0.52" stop-color="#ebd361"/><stop offset="0.68" stop-color="#f5e368"/><stop offset="0.72" stop-color="#eeda64"/><stop offset="0.81" stop-color="#dac058"/><stop offset="0.91" stop-color="#ba9846"/><stop offset="1" stop-color="#996d33"/></radialGradient><linearGradient id="linear-gradient-3" x1="15.41" y1="200" x2="384.59" y2="200" gradientUnits="userSpaceOnUse"><stop offset="0" stop-color="#bc893d"/><stop offset="0.21" stop-color="#ddbe65"/><stop offset="0.38" stop-color="#f5e582"/><stop offset="0.56" stop-color="#dec76e"/><stop offset="0.93" stop-color="#a57c3d"/><stop offset="1" stop-color="#996d33"/></linearGradient><radialGradient id="radial-gradient-2" cx="1187.43" cy="2402.89" r="506.06" xlink:href="#radial-gradient"/><linearGradient id="linear-gradient-4" x1="200" y1="381.17" x2="200" y2="18.83" xlink:href="#linear-gradient-3"/><linearGradient id="linear-gradient-5" x1="200" y1="381.17" x2="200" y2="18.83" xlink:href="#linear-gradient"/><linearGradient id="linear-gradient-6" x1="61.18" y1="200" x2="314.68" y2="200" gradientUnits="userSpaceOnUse"><stop offset="0" stop-color="#0baaff"/><stop offset="0.23" stop-color="#0f62dc"/><stop offset="0.51" stop-color="#0baaff"/><stop offset="0.8" stop-color="#0f62c8"/><stop offset="1" stop-color="#0baaff"/></linearGradient><radialGradient id="radial-gradient-3" cx="1183.8" cy="2255.32" r="437.96" gradientTransform="translate(-220.59 -651.11) scale(0.35)" gradientUnits="userSpaceOnUse"><stop offset="0" stop-color="#fff"/><stop offset="0.13" stop-color="#fbfbfd"/><stop offset="0.26" stop-color="#efeff6"/><stop offset="0.39" stop-color="#dcdbeb"/><stop offset="0.51" stop-color="#c0bfdb"/><stop offset="0.64" stop-color="#9d9cc6"/><stop offset="0.77" stop-color="#7170ad"/><stop offset="0.89" stop-color="#3f3d90"/><stop offset="1" stop-color="#0c0972"/></radialGradient><linearGradient id="linear-gradient-7" x1="-924.39" y1="1123.2" x2="-901.03" y2="1123.2" gradientTransform="matrix(0.98, -0.18, 0.18, 0.98, 1044.92, -1135.57)" gradientUnits="userSpaceOnUse"><stop offset="0" stop-color="#b9873d"/><stop offset="0.34" stop-color="#d0ac58"/><stop offset="0.78" stop-color="#ebd576"/><stop offset="1" stop-color="#f5e582"/></linearGradient><linearGradient id="linear-gradient-8" x1="-2446.54" y1="1857.68" x2="-2422.77" y2="1857.68" gradientTransform="translate(1926.33 -2454.02) rotate(-21.19)" xlink:href="#linear-gradient-7"/><linearGradient id="linear-gradient-9" x1="-2334.26" y1="1796.79" x2="-2310.9" y2="1796.79" gradientTransform="translate(1876.04 -2391.01) rotate(-20.57)" xlink:href="#linear-gradient-7"/><linearGradient id="linear-gradient-10" x1="-3959.02" y1="2253.77" x2="-3935.25" y2="2253.77" gradientTransform="matrix(0.85, -0.52, 0.52, 0.85, 2507.43, -3847.16)" xlink:href="#linear-gradient-7"/><linearGradient id="linear-gradient-11" x1="-3841.64" y1="2208.09" x2="-3818.27" y2="2208.09" gradientTransform="translate(2469.39 -3774.78) rotate(-30.86)" xlink:href="#linear-gradient-7"/><linearGradient id="linear-gradient-12" x1="-5517.38" y1="2371.2" x2="-5493.61" y2="2371.2" gradientTransform="matrix(0.75, -0.67, 0.67, 0.75, 2831.95, -5319.92)" xlink:href="#linear-gradient-7"/><linearGradient id="linear-gradient-13" x1="-5397.61" y1="2342.13" x2="-5374.26" y2="2342.13" gradientTransform="matrix(0.75, -0.66, 0.66, 0.75, 2807.13, -5240.8)" xlink:href="#linear-gradient-7"/><linearGradient id="linear-gradient-14" x1="-7070.18" y1="2209.86" x2="-7046.41" y2="2209.86" gradientTransform="translate(2886.5 -6825.94) rotate(-52.05)" xlink:href="#linear-gradient-7"/><linearGradient id="linear-gradient-15" x1="-6953.88" y1="2197.75" x2="-6930.52" y2="2197.75" gradientTransform="translate(2876.75 -6745.5) rotate(-51.43)" xlink:href="#linear-gradient-7"/><linearGradient id="linear-gradient-16" x1="-8571.74" y1="1772.86" x2="-8547.97" y2="1772.86" gradientTransform="translate(2672.65 -8320.12) rotate(-62.34)" xlink:href="#linear-gradient-7"/><linearGradient id="linear-gradient-17" x1="-8459.28" y1="1776.84" x2="-8435.92" y2="1776.84" gradientTransform="matrix(0.47, -0.88, 0.88, 0.47, 2677.6, -8238.3)" xlink:href="#linear-gradient-7"/><linearGradient id="linear-gradient-18" x1="-9970.24" y1="1074.84" x2="-9946.47" y2="1074.84" gradientTransform="translate(2195.48 -9751.21) rotate(-72.62)" xlink:href="#linear-gradient-7"/><linearGradient id="linear-gradient-19" x1="-9866.09" y1="1094.5" x2="-9842.74" y2="1094.5" gradientTransform="translate(2214.24 -9672.46) rotate(-72)" xlink:href="#linear-gradient-7"/><linearGradient id="linear-gradient-20" x1="-11220.92" y1="140.21" x2="-11197.15" y2="140.21" gradientTransform="translate(1468.65 -11072.27) rotate(-82.91)" xlink:href="#linear-gradient-7"/><linearGradient id="linear-gradient-21" x1="-11127.2" y1="173.42" x2="-11103.84" y2="173.42" gradientTransform="translate(1500.97 -10998.6) rotate(-82.29)" xlink:href="#linear-gradient-7"/><linearGradient id="linear-gradient-22" x1="-12285.6" y1="-1004.15" x2="-12261.82" y2="-1004.15" gradientTransform="translate(518.32 -12244.3) rotate(-93.19)" xlink:href="#linear-gradient-7"/><linearGradient id="linear-gradient-23" x1="-12203.93" y1="-960.33" x2="-12180.57" y2="-960.33" gradientTransform="translate(564.55 -12178.17) rotate(-92.57)" xlink:href="#linear-gradient-7"/><linearGradient id="linear-gradient-24" x1="-13128.41" y1="-2321.42" x2="-13104.64" y2="-2321.42" gradientTransform="translate(-624.48 -13228.98) rotate(-103.48)" xlink:href="#linear-gradient-7"/><linearGradient id="linear-gradient-25" x1="-13060.15" y1="-2266.71" x2="-13036.79" y2="-2266.71" gradientTransform="translate(-567.82 -13169.35) rotate(-102.86)" xlink:href="#linear-gradient-7"/><linearGradient id="linear-gradient-26" x1="-13722.74" y1="-3766.23" x2="-13698.97" y2="-3766.23" gradientTransform="translate(-1926.47 -13991.49) rotate(-113.77)" xlink:href="#linear-gradient-7"/><linearGradient id="linear-gradient-27" x1="-13670.02" y1="-3705.55" x2="-13646.66" y2="-3705.55" gradientTransform="matrix(-0.39, -0.92, 0.92, -0.39, -1859.42, -13943.58)" xlink:href="#linear-gradient-7"/><linearGradient id="linear-gradient-28" x1="-14048.57" y1="-5294.75" x2="-14024.8" y2="-5294.75" gradientTransform="translate(-3341.45 -14510.3) rotate(-124.05)" xlink:href="#linear-gradient-7"/><linearGradient id="linear-gradient-29" x1="-14013.11" y1="-5230.76" x2="-13989.76" y2="-5230.76" gradientTransform="matrix(-0.55, -0.83, 0.83, -0.55, -3268.14, -14475.96)" xlink:href="#linear-gradient-7"/><linearGradient id="linear-gradient-30" x1="-14097.34" y1="-6856.88" x2="-14073.57" y2="-6856.88" gradientTransform="translate(-4828.61 -14768.31) rotate(-134.34)" xlink:href="#linear-gradient-7"/><linearGradient id="linear-gradient-31" x1="-14078.76" y1="-6792.14" x2="-14055.4" y2="-6792.14" gradientTransform="translate(-4750.29 -14747.23) rotate(-133.72)" xlink:href="#linear-gradient-7"/><linearGradient id="linear-gradient-32" x1="-13865.83" y1="-8401.8" x2="-13842.05" y2="-8401.8" gradientTransform="matrix(-0.82, -0.58, 0.58, -0.82, -6336.1, -14754.62)" xlink:href="#linear-gradient-7"/><linearGradient id="linear-gradient-33" x1="-13863.95" y1="-8339.8" x2="-13840.59" y2="-8339.8" gradientTransform="translate(-6255.35 -14748.77) rotate(-144)" xlink:href="#linear-gradient-7"/><linearGradient id="linear-gradient-34" x1="-13362.48" y1="-9881.27" x2="-13338.71" y2="-9881.27" gradientTransform="translate(-7818.49 -14473.47) rotate(-154.91)" xlink:href="#linear-gradient-7"/><linearGradient id="linear-gradient-35" x1="-13376.65" y1="-9824.76" x2="-13353.3" y2="-9824.76" gradientTransform="translate(-7738.12 -14482.77) rotate(-154.29)" xlink:href="#linear-gradient-7"/><linearGradient id="linear-gradient-36" x1="-12602.92" y1="-11247.13" x2="-12579.15" y2="-11247.13" gradientTransform="translate(-9226.48 -13932.77) rotate(-165.19)" xlink:href="#linear-gradient-7"/><linearGradient id="linear-gradient-37" x1="-12632.11" y1="-11198.49" x2="-12608.75" y2="-11198.49" gradientTransform="translate(-9149.68 -13955.04) rotate(-164.57)" xlink:href="#linear-gradient-7"/><linearGradient id="linear-gradient-38" x1="-11611.87" y1="-12455.12" x2="-11588.1" y2="-12455.12" gradientTransform="matrix(-1, -0.08, 0.08, -1, -10516.07, -13147.81)" xlink:href="#linear-gradient-7"/><linearGradient id="linear-gradient-39" x1="-11654" y1="-12417.22" x2="-11630.64" y2="-12417.22" gradientTransform="matrix(-1, -0.09, 0.09, -1, -10443.47, -13184.33)" xlink:href="#linear-gradient-7"/><linearGradient id="linear-gradient-40" x1="-10420.57" y1="-13466.94" x2="-10396.79" y2="-13466.94" gradientTransform="matrix(-0.99, 0.1, -0.1, -0.99, -11642.17, -12146.34)" xlink:href="#linear-gradient-7"/><linearGradient id="linear-gradient-41" x1="-10473.9" y1="-13442" x2="-10450.54" y2="-13442" gradientTransform="matrix(-1, 0.09, -0.09, -1, -11577.85, -12196.25)" xlink:href="#linear-gradient-7"/><linearGradient id="linear-gradient-42" x1="-9068.18" y1="-14249.55" x2="-9044.41" y2="-14249.55" gradientTransform="translate(-12574.26 -10958.96) rotate(163.95)" xlink:href="#linear-gradient-7"/><linearGradient id="linear-gradient-43" x1="-9130.01" y1="-14239.49" x2="-9106.66" y2="-14239.49" gradientTransform="translate(-12518.71 -11020.36) rotate(164.57)" xlink:href="#linear-gradient-7"/><linearGradient id="linear-gradient-44" x1="-7597.53" y1="-14778.54" x2="-7573.76" y2="-14778.54" gradientTransform="translate(-13277.63 -9625.83) rotate(153.67)" xlink:href="#linear-gradient-7"/><linearGradient id="linear-gradient-45" x1="-7665.38" y1="-14783.89" x2="-7642.03" y2="-14783.89" gradientTransform="translate(-13234.97 -9694.46) rotate(154.29)" xlink:href="#linear-gradient-7"/><linearGradient id="linear-gradient-46" x1="-6056.25" y1="-15036.23" x2="-6032.48" y2="-15036.23" gradientTransform="translate(-13732.41 -8187.7) rotate(143.38)" xlink:href="#linear-gradient-7"/><linearGradient id="linear-gradient-47" x1="-6126.67" y1="-15058.07" x2="-6103.31" y2="-15058.07" gradientTransform="translate(-13701.75 -8262.21) rotate(144)" xlink:href="#linear-gradient-7"/><linearGradient id="linear-gradient-48" x1="-4493.55" y1="-15014.74" x2="-4469.78" y2="-15014.74" gradientTransform="translate(-13922.61 -6691.84) rotate(133.1)" xlink:href="#linear-gradient-7"/><linearGradient id="linear-gradient-49" x1="-4564.27" y1="-15053.67" x2="-4540.92" y2="-15053.67" gradientTransform="translate(-13906.68 -6771.12) rotate(133.72)" xlink:href="#linear-gradient-7"/><linearGradient id="linear-gradient-50" x1="-2960.09" y1="-14713.82" x2="-2936.32" y2="-14713.82" gradientTransform="matrix(-0.54, 0.84, -0.84, -0.54, -13843.04, -5184.45)" xlink:href="#linear-gradient-7"/><linearGradient id="linear-gradient-51" x1="-3027.5" y1="-14769.61" x2="-3004.14" y2="-14769.61" gradientTransform="matrix(-0.55, 0.83, -0.83, -0.55, -13841.17, -5265.78)" xlink:href="#linear-gradient-7"/><linearGradient id="linear-gradient-52" x1="-1504.32" y1="-14144.38" x2="-1480.55" y2="-14144.38" gradientTransform="translate(-13494.73 -3716.92) rotate(112.52)" xlink:href="#linear-gradient-7"/><linearGradient id="linear-gradient-53" x1="-1565.43" y1="-14216.01" x2="-1542.07" y2="-14216.01" gradientTransform="matrix(-0.39, 0.92, -0.92, -0.39, -13507.03, -3797.44)" xlink:href="#linear-gradient-7"/><linearGradient id="linear-gradient-54" x1="-174.77" y1="-13323.99" x2="-151" y2="-13323.99" gradientTransform="translate(-12891.4 -2333.95) rotate(102.23)" xlink:href="#linear-gradient-7"/><linearGradient id="linear-gradient-55" x1="-226.37" y1="-13410.33" x2="-203.01" y2="-13410.33" gradientTransform="translate(-12917.23 -2411.87) rotate(102.86)" xlink:href="#linear-gradient-7"/><linearGradient id="linear-gradient-56" x1="988.09" y1="-12279.6" x2="1011.86" y2="-12279.6" gradientTransform="translate(-12049.81 -1082.46) rotate(91.95)" xlink:href="#linear-gradient-7"/><linearGradient id="linear-gradient-57" x1="946.87" y1="-12379.33" x2="970.23" y2="-12379.33" gradientTransform="translate(-12090.73 -1154.18) rotate(92.57)" xlink:href="#linear-gradient-7"/><linearGradient id="linear-gradient-58" x1="1945.48" y1="-11044.21" x2="1969.25" y2="-11044.21" gradientTransform="translate(-10998.42 -0.87) rotate(81.66)" xlink:href="#linear-gradient-7"/><linearGradient id="linear-gradient-59" x1="1918.46" y1="-11154.27" x2="1941.82" y2="-11154.27" gradientTransform="translate(-11050.76 -64.92) rotate(82.29)" xlink:href="#linear-gradient-7"/><linearGradient id="linear-gradient-60" x1="2665.86" y1="-9659.25" x2="2689.63" y2="-9659.25" gradientTransform="translate(-9772.8 876.42) rotate(71.38)" xlink:href="#linear-gradient-7"/><linearGradient id="linear-gradient-61" x1="2653.4" y1="-9776.33" x2="2676.76" y2="-9776.33" gradientTransform="translate(-9834.87 823.56) rotate(72)" xlink:href="#linear-gradient-7"/><linearGradient id="linear-gradient-62" x1="3128.57" y1="-8165.58" x2="3152.34" y2="-8165.58" gradientTransform="translate(-8407.41 1519.44) rotate(61.09)" xlink:href="#linear-gradient-7"/><linearGradient id="linear-gradient-63" x1="3131.73" y1="-8287.65" x2="3155.09" y2="-8287.65" gradientTransform="matrix(0.47, 0.88, -0.88, 0.47, -8477.78, 1479.13)" xlink:href="#linear-gradient-7"/><linearGradient id="linear-gradient-64" x1="3317.61" y1="-6614.25" x2="3341.39" y2="-6614.25" gradientTransform="translate(-6950.46 1908.09) rotate(50.81)" xlink:href="#linear-gradient-7"/><linearGradient id="linear-gradient-65" x1="3337.35" y1="-6738.13" x2="3360.71" y2="-6738.13" gradientTransform="translate(-7026.45 1881.09) rotate(51.43)" xlink:href="#linear-gradient-7"/><linearGradient id="linear-gradient-66" x1="3224.47" y1="-5053.6" x2="3248.24" y2="-5053.6" gradientTransform="matrix(0.76, 0.65, -0.65, 0.76, -5445.99, 2032.04)" xlink:href="#linear-gradient-7"/><linearGradient id="linear-gradient-67" x1="3261.99" y1="-5176.96" x2="3285.35" y2="-5176.96" gradientTransform="matrix(0.75, 0.66, -0.66, 0.75, -5526.4, 2018.44)" xlink:href="#linear-gradient-7"/><linearGradient id="linear-gradient-68" x1="2855.46" y1="-3536.67" x2="2879.23" y2="-3536.67" gradientTransform="matrix(0.86, 0.5, -0.5, 0.86, -3945.87, 1885.72)" xlink:href="#linear-gradient-7"/><linearGradient id="linear-gradient-69" x1="2910.97" y1="-3655.3" x2="2934.33" y2="-3655.3" gradientTransform="translate(-4027.96 1885.05) rotate(30.86)" xlink:href="#linear-gradient-7"/><linearGradient id="linear-gradient-70" x1="2221.9" y1="-2107.56" x2="2245.67" y2="-2107.56" gradientTransform="matrix(0.94, 0.34, -0.34, 0.94, -2494.93, 1471.67)" xlink:href="#linear-gradient-7"/><linearGradient id="linear-gradient-71" x1="2292.25" y1="-2220.53" x2="2315.61" y2="-2220.53" gradientTransform="translate(-2575.86 1487.08) rotate(20.57)" xlink:href="#linear-gradient-7"/><linearGradient id="linear-gradient-72" x1="1343.56" y1="-815.72" x2="1367.33" y2="-815.72" gradientTransform="matrix(0.99, 0.17, -0.17, 0.99, -1141.86, 806.31)" xlink:href="#linear-gradient-7"/><linearGradient id="linear-gradient-73" x1="1427.52" y1="-919.1" x2="1450.88" y2="-919.1" gradientTransform="matrix(0.98, 0.18, -0.18, 0.98, -1218.28, 835.98)" xlink:href="#linear-gradient-7"/><linearGradient id="linear-gradient-74" x1="248.87" y1="299.02" x2="272.64" y2="299.02" gradientTransform="matrix(1, -0.01, 0.01, 1, 70.49, -90.35)" xlink:href="#linear-gradient-7"/><linearGradient id="linear-gradient-75" x1="343.16" y1="207.55" x2="366.52" y2="207.55" gradientTransform="translate(2.39 -47.57)" xlink:href="#linear-gradient-7"/><linearGradient id="linear-gradient-76" x1="-1028.66" y1="1200.38" x2="-1004.89" y2="1200.38" gradientTransform="translate(1104.53 -1189.31) rotate(-10.91)" xlink:href="#linear-gradient-7"/><linearGradient id="linear-gradient-77" x1="322.62" y1="235.54" x2="93.29" y2="166.21" xlink:href="#linear-gradient"/></defs><title>Asset 29</title><g class="cls-1"><g id="Layer_2" data-name="Layer 2"><g id="DESIGNED_BY_FREEPIK" data-name="DESIGNED BY FREEPIK"><rect class="cls-2" width="400" height="400"/><path class="cls-3" d="M400,200c0,110.46-89.55,200-200,200S0,310.46,0,200,89.54,0,200,0,400,89.54,400,200Z"/><circle class="cls-4" cx="200" cy="200" r="195.19" transform="translate(-23.82 372.92) rotate(-82.69)"/><path class="cls-5" d="M384.59,200C384.59,302,301.94,384.59,200,384.59A184.59,184.59,0,0,1,15.41,200C15.41,98.06,98.05,15.41,200,15.41S384.59,98.06,384.59,200Z"/><path class="cls-6" d="M384.59,200C384.59,302,301.94,384.59,200,384.59A184.59,184.59,0,0,1,15.41,200C15.41,98.06,98.05,15.41,200,15.41S384.59,98.06,384.59,200Z"/><path class="cls-7" d="M379.24,200c0,99-80.25,179.25-179.24,179.25S20.76,299,20.76,200,101,20.75,200,20.75,379.24,101,379.24,200Z"/><path class="cls-8" d="M381.17,200A181.17,181.17,0,1,1,200,18.83,181.17,181.17,0,0,1,381.17,200Z"/><path class="cls-9" d="M381.17,200A181.17,181.17,0,1,1,200,18.83,181.17,181.17,0,0,1,381.17,200Z"/><path class="cls-10" d="M316.24,200A116.24,116.24,0,1,1,200,83.76,116.24,116.24,0,0,1,316.24,200Z"/><path class="cls-11" d="M316.24,200A116.24,116.24,0,1,1,200,83.76,116.24,116.24,0,0,1,316.24,200Z"/><path class="cls-12" d="M338.91,150s22.64-12.78,17.24-35C356.15,115.07,332.48,125.65,338.91,150Z"/><path class="cls-13" d="M343.74,166.41S334.1,146.23,311.88,150C311.88,150,319.25,171,343.74,166.41Z"/><path class="cls-14" d="M327.7,126s20-16.61,10.71-37.47C338.41,88.55,317,103.19,327.7,126Z"/><path class="cls-15" d="M335.37,141.28s-13.08-18.13-34.27-10.45C301.1,130.83,312.1,150.17,335.37,141.28Z"/><path class="cls-16" d="M312.39,104.4s16.69-19.92,3.85-38.77C316.24,65.63,297.79,83.85,312.39,104.4Z"/><path class="cls-17" d="M322.66,118.05s-16.12-15.51-35.59-4.17C287.07,113.88,301.34,131,322.66,118.05Z"/><path class="cls-18" d="M293.45,85.87S306.32,63.29,290.32,47C290.32,47,275.43,68.25,293.45,85.87Z"/><path class="cls-19" d="M306,97.46s-18.62-12.38-35.76,2.26C270.24,99.72,287.33,114,306,97.46Z"/><path class="cls-20" d="M271.51,71s8.64-24.51-10-37.65C261.5,33.36,250.63,56.89,271.51,71Z"/><path class="cls-21" d="M285.93,80.18s-20.54-8.86-34.78,8.6C251.15,88.78,270.5,99.75,285.93,80.18Z"/><path class="cls-22" d="M247.28,60.31s4.11-25.66-16.58-35.26C230.7,25.05,224.21,50.15,247.28,60.31Z"/><path class="cls-23" d="M263.1,66.76s-21.79-5.05-32.69,14.67C230.41,81.43,251.41,88.77,263.1,66.76Z"/><path class="cls-24" d="M221.52,54.11s-.53-26-22.61-31.74C198.91,22.37,197,48.23,221.52,54.11Z"/><path class="cls-25" d="M238.24,57.63s-22.34-1.08-29.55,20.28C208.69,77.91,230.67,81.37,238.24,57.63Z"/><path class="cls-26" d="M195.07,52.61s-5.17-25.47-27.92-27.19C167.15,25.42,169.9,51.2,195.07,52.61Z"/><path class="cls-27" d="M212.14,53.09S190,56,186.7,78.31C186.7,78.31,208.94,77.8,212.14,53.09Z"/><path class="cls-28" d="M168.77,55.85s-9.63-24.14-32.32-21.76C136.45,34.09,143.75,59,168.77,55.85Z"/><path class="cls-29" d="M185.66,53.28s-21.29,6.84-20.53,29.36C165.13,82.64,186.92,78.16,185.66,53.28Z"/><path class="cls-30" d="M143.48,63.74s-13.78-22-35.69-15.64C107.79,48.1,119.42,71.27,143.48,63.74Z"/><path class="cls-31" d="M159.64,58.19s-19.73,10.53-15,32.56C144.67,90.75,165.32,82.45,159.64,58.19Z"/><path class="cls-32" d="M120,76s-17.49-19.21-37.9-9C82.1,67,97.67,87.72,120,76Z"/><path class="cls-33" d="M134.91,67.68s-17.53,13.88-8.91,34.7C126,102.38,144.83,90.53,134.91,67.68Z"/><path class="cls-34" d="M99.09,92.29s-20.64-15.78-38.9-2.1C60.19,90.19,79.21,107.79,99.09,92.29Z"/><path class="cls-35" d="M112.27,81.42S97.5,98.21,109.7,117.16C109.7,117.16,126.11,102.14,112.27,81.42Z"/><path class="cls-36" d="M81.43,112s-23.13-11.85-38.66,4.87C42.77,116.91,64.63,130.84,81.43,112Z"/><path class="cls-37" d="M92.45,99s-11.54,19.16,3.86,35.62C96.31,134.61,109.77,116.9,92.45,99Z"/><path class="cls-38" d="M67.57,134.62S42.7,127.1,30.4,146.32C30.4,146.32,54.4,156.12,67.57,134.62Z"/><path class="cls-39" d="M76.09,119.81s-7.93,20.91,10.15,34.37C86.24,154.18,96.32,134.34,76.09,119.81Z"/><path class="cls-40" d="M58,159.32s-25.82-3-34.48,18.14C23.49,177.46,48.85,182.82,58,159.32Z"/><path class="cls-41" d="M63.7,143.22s-4.07,22,16.13,32C79.83,175.22,86.21,153.91,63.7,143.22Z"/><path class="cls-42" d="M52.93,185.33S27,187,22.24,209.34C22.24,209.34,48.16,210.08,52.93,185.33Z"/><path class="cls-43" d="M55.7,168.47s-.08,22.36,21.58,28.6C77.28,197.07,79.75,175,55.7,168.47Z"/><path class="cls-44" d="M52.62,211.82s-25.22,6.3-25.91,29.1C26.71,240.92,52.34,237,52.62,211.82Z"/><path class="cls-45" d="M52.33,194.74s3.92,22,26.34,24.29C78.67,219,77.16,196.83,52.33,194.74Z"/><path class="cls-46" d="M57,237.94s-23.68,10.7-20.29,33.27C36.75,271.21,61.27,262.8,57,237.94Z"/><path class="cls-47" d="M53.71,221.19s7.78,21,30.25,19.19C84,240.38,78.51,218.82,53.71,221.19Z"/><path class="cls-48" d="M66.05,262.86s-21.39,14.75-14,36.35C52,299.21,74.65,286.55,66.05,262.86Z"/><path class="cls-49" d="M59.79,247S71.19,266.2,93,260.45C93,260.45,83.76,240.2,59.79,247Z"/><path class="cls-50" d="M79.37,285.76S61,304.1,72.06,324C72.06,324,92.07,307.54,79.37,285.76Z"/><path class="cls-51" d="M70.37,271.24s14.65,16.9,35.07,7.34C105.44,278.58,92.75,260.31,70.37,271.24Z"/><path class="cls-52" d="M96.57,305.92s-14.85,21.33-.36,39C96.21,344.88,112.94,325.08,96.57,305.92Z"/><path class="cls-53" d="M85.12,293.24s17.43,14,35.81,1C120.93,294.2,105.19,278.48,85.12,293.24Z"/><path class="cls-54" d="M117.09,322.68s-10.8,23.64,6.6,38.4C123.69,361.08,136.62,338.61,117.09,322.68Z"/><path class="cls-55" d="M103.55,312.25s19.66,10.67,35.42-5.45C139,306.8,120.67,294.15,103.55,312.25Z"/><path class="cls-56" d="M140.27,335.51s-6.4,25.19,13.35,36.6C153.62,372.11,162.33,347.7,140.27,335.51Z"/><path class="cls-57" d="M125.09,327.67s21.25,7,33.87-11.69C159,316,138.7,306.8,125.09,327.67Z"/><path class="cls-58" d="M165.37,344s-1.8,25.93,19.67,33.64C185,377.63,189.25,352.05,165.37,344Z"/><path class="cls-59" d="M149,339s22.16,3.07,31.24-17.55C180.27,321.44,158.7,316,149,339Z"/><path class="cls-60" d="M191.58,347.86s2.85,25.83,25.36,29.58C216.94,377.44,216.52,351.52,191.58,347.86Z"/><path class="cls-61" d="M174.61,345.85S197,344.92,202.22,323C202.22,323,180,321.53,174.61,345.85Z"/><path class="cls-62" d="M218.06,347s7.42,24.91,30.24,24.58C248.3,371.56,243.25,346.13,218.06,347Z"/><path class="cls-63" d="M201,348s21.82-4.91,23.08-27.41C224.09,320.63,202,323.14,201,348Z"/><path class="cls-64" d="M244,341.39s11.75,23.18,34.14,18.78C278.1,360.17,268.59,336.06,244,341.39Z"/><path class="cls-65" d="M227.37,345.47s20.59-8.72,17.82-31.08C245.19,314.39,223.88,320.8,227.37,345.47Z"/><path class="cls-66" d="M268.44,331.27s15.7,20.71,36.95,12.38C305.39,343.65,291.73,321.62,268.44,331.27Z"/><path class="cls-67" d="M252.84,338.25s18.71-12.26,12-33.77C264.83,304.48,245,314.59,252.84,338.25Z"/><path class="cls-68" d="M290.72,316.93s19.15,17.58,38.56,5.59C329.28,322.52,311.91,303.28,290.72,316.93Z"/><path class="cls-69" d="M276.62,326.59s16.23-15.41,5.76-35.37C282.38,291.22,264.69,304.71,276.62,326.59Z"/><path class="cls-70" d="M310.09,298.85s22,13.88,38.94-1.39C349,297.46,328.5,281.63,310.09,298.85Z"/><path class="cls-71" d="M297.94,310.86s13.21-18.05-.65-35.82C297.29,275,282.29,291.47,297.94,310.86Z"/><path class="cls-72" d="M325.91,277.6s24.1,9.73,38.07-8.32C364,269.28,341,257.37,325.91,277.6Z"/><path class="cls-73" d="M316.1,291.59s9.78-20.12-7-35.13C309.07,256.46,297.24,275.3,316.1,291.59Z"/><path class="cls-74" d="M337.69,253.87s25.45,5.27,36-15C373.66,238.89,348.88,231.28,337.69,253.87Z"/><path class="cls-75" d="M330.53,269.39s6-21.54-13.19-33.32C317.34,236.07,309.07,256.73,330.53,269.39Z"/><path class="cls-76" d="M345,228.41s26,.65,32.72-21.16C377.76,207.25,352,204.19,345,228.41Z"/><path class="cls-77" d="M340.77,245s2.08-22.27-18.93-30.42C321.84,214.54,317.39,236.34,340.77,245Z"/><path class="cls-78" d="M347.72,202.05s25.68-4,28.42-26.66C376.14,175.39,350.27,177,347.72,202.05Z"/><path class="cls-79" d="M346.48,219.09s-1.93-22.28-24.06-26.54C322.42,192.55,321.94,214.79,346.48,219.09Z"/><path class="cls-80" d="M345.66,175.64s24.55-8.53,23.2-31.31C368.86,144.33,343.68,150.51,345.66,175.64Z"/><path class="cls-81" d="M347.48,192.63s-5.88-21.58-28.42-21.83C319.06,170.8,322.56,192.78,347.48,192.63Z"/><path class="cls-82" d="M263.76,197.24a60.6,60.6,0,0,0-15.25-13.57c-.32-.2-.63-.42-1-.66l.71-1.1a91.88,91.88,0,0,0,11-24.39,43.79,43.79,0,0,0,1.8-13.51,15.55,15.55,0,0,0-1.7-6.89,7.27,7.27,0,0,0-4.92-3.83,9.68,9.68,0,0,0-4,0,22.6,22.6,0,0,0-8,3.62,52.49,52.49,0,0,0-9.19,8,96.37,96.37,0,0,0-16.82,25.76l-.48,1a99.26,99.26,0,0,0-20.16-.93V169.7a104.26,104.26,0,0,0-.63-16.19,72.26,72.26,0,0,0-3.47-15.43,33.31,33.31,0,0,0-5-9.65,13.78,13.78,0,0,0-3.55-3.26,7.38,7.38,0,0,0-8.25,0,13.3,13.3,0,0,0-3.19,2.84,26.59,26.59,0,0,0-3.55,5.69A55.16,55.16,0,0,0,164,146.15a87.25,87.25,0,0,0-1.78,13.56,100,100,0,0,0,.22,14.58c.14,1.42.29,2.84.43,4.33l-1.18.57A70.52,70.52,0,0,0,145.2,190a50.77,50.77,0,0,0-12.3,15.8,39,39,0,0,0-3.3,25.8,43.55,43.55,0,0,0,8.84,18.1,61.4,61.4,0,0,0,18.14,15.22,87.58,87.58,0,0,0,36.93,10.91,96.56,96.56,0,0,0,16.66-.15,91.88,91.88,0,0,0,18.44-3.55,76.15,76.15,0,0,0,25.93-13.34,52.22,52.22,0,0,0,14-16.68,39.19,39.19,0,0,0,3.73-27.4A43.33,43.33,0,0,0,263.76,197.24Z"/></g></g></g></svg>